<svg xmlns="http://www.w3.org/2000/svg" xml:space="preserve" width="75.592" height="20mm" viewBox="0 0 20 20"><g style="display:inline"><path d="M49.473-.006V2.29l1-.003v-.023h.002v-.047L50.473.07v-.075h-1zM48.02.03l-1 .052v.023l.002.026v.023l.109 2.148v.023h.002v.046l.995-.049V2.25L48.021.08V.03zm6.353.153-.002.026-.003.023-.003.026-.206 2.137-.003.026-.002.02-.003.026.995.096.002-.024.003-.023.003-.023.211-2.163.006-.049-.998-.098zm-8.803.005-.995.098.003.026h-.003l.005.05.21 2.12.002.016.003.026v.005l.003.016.002.025.992-.1-.002-.024h.002l-.002-.023-.003-.023h.003L45.57.188zm-2.44.279-.989.147.008.05.212 1.413.008.049.1.685.003.023h.003l.002.023.003.023.987-.144-.003-.026-.002-.02-.003-.027-.323-2.147-.002-.026-.003-.023zm16.106.385-.005.026h-.003l-.01.049-.416 2.106-.005.023-.005.023-.006.024.982.193.005-.023.006-.023.005-.023.416-2.106.005-.026.005-.023.005-.026-.979-.194zm-18.526.01-.982.197.005.023.005.026.006.023.074.377.01.05.34 1.702.01.047.979-.194-.005-.023-.005-.024h.002l-.005-.023-.429-2.155-.005-.026zm20.924.502-.005.025-.005.024h-.003l-.005.026-.2.798-.012.047-.315 1.26-.013.047.971.243.005-.023.006-.024h.002l.005-.023.12-.475.012-.047.395-1.586.013-.05-.971-.242zm-23.325.013-.968.245.005.023.007.026.006.023.524 2.083.005.023.005.024.006.023.969-.243-.006-.023-.005-.024-.005-.023-.532-2.108-.005-.024-.006-.025zm25.697.617-.008.023-.008.026v.003l-.007.02-.62 2.055-.008.023-.008.023-.008.024.956.289.008-.023h.003l.012-.047.63-2.08.016-.046-.958-.29zM35.94 2.01l-.958.29.007.025.008.02.008.026.63 2.078.013.046.956-.289-.008-.023h.003l-.008-.023-.005-.024-.646-2.126zm30.404.728-.008.024-.007.023h-.003l-.008.023-.14.395-.017.047-.504 1.41-.07.195-.015.044.94.335.008-.023.008-.02h.002l.008-.024.14-.395.018-.047.573-1.604.018-.047-.943-.336zm-32.742.018-.94.339.007.023.018.047.724 2.023.007.02.008.024.008.02.94-.335-.007-.024-.008-.02-.005-.013-.003-.01-.726-2.024-.008-.023-.008-.023-.007-.024zm35.042.84-.01.023-.01.024-.011.023-.796 1.928-.023.056-.01.024-.008.02-.01.024.922.382.01-.023.008-.02h.002l.01-.024.817-1.985.01-.023.01-.023.011-.023-.922-.383zm-37.34.023-.924.383.01.023.01.023H30.4l.01.024.824 1.982.01.023.008.02.01.024.923-.383-.01-.023h.002l-.01-.02-.008-.024-.834-2.005-.018-.047zm-4.454 2.055-.88.473.01.02.012.024.005.012.006.008.217.406.798 1.488.013.02.01.022.01.02.88-.47-.014-.023h.003l-.01-.018-.01-.024-1.027-1.914-.023-.044zm48.398 1.16-.013.023-.013.02-.013.024-1.103 1.84-.013.02-.013.021-.013.02.858.515.013-.02.013-.021.013-.02 1.114-1.864.015-.023.013-.02-.858-.515zm-50.545.028-.858.515.013.023.013.02.005.01.008.014.403.669.703 1.17.01.021.003-.002.013.023.01.02.855-.514-.01-.02-.013-.021-.003-.005-.007-.016-1.106-1.84-.008-.012-.005-.01-.013-.021-.013-.024zm52.633 1.264-.016.02-.013.021-.007.01-.008.01-.775 1.164-.029.041-.387.581-.013.021-.016.02-.013.021.832.553.013-.02.013-.02.003.002.013-.021.245-.364.961-1.442.029-.042-.832-.555zm-54.718.03-.832.556.015.021.013.02.016.021 1.19 1.786.027.039.002-.003.013.02.83-.555-.013-.015-.016-.023h.003l-.013-.019-.553-.824-.026-.041-.617-.92-.013-.02-.013-.021-.013-.021zm56.738 1.36-.015.02-.016.021-.015.021-.736.995-.54.729-.016.02-.013.018-.015.021.8.594.013-.018h.003l.016-.02.005-.008.007-.01h.003l1.292-1.747.015-.02.016-.019-.804-.597zm1.951 1.488-.018.021-.015.018-.018.02-1.375 1.68-.031.037.775.633.016-.018.015-.018.016-.019 1.359-1.661.015-.018.018-.02.016-.019-.773-.636zm-64.531 1.62-.742.672.018.019.016.018.018.018 1.442 1.591.03.037.019.018.739-.672-.016-.018-.015-.018-.016-.018-1.46-1.608-.033-.038zm68.2 1.636-.018.018-.018.018-.018.019-1.514 1.519-.018.018-.016.015-.018.019.703.705.018-.015v-.003l.018-.016.018-.015v-.003l1.517-1.516.018-.019.018-.018.018-.018-.708-.708zm-69.993.042-.708.705.018.018.018.018.018.018 1.52 1.517.015.018.018.016.015.018.708-.708-.018-.016-.018-.015.003-.003-.018-.015-1.52-1.517-.018-.018-.015-.018-.018-.018zm-1.708 1.76-.672.74.018.016.018.018.018.016.507.457 1.085.985.018.015.018.016.018.015.67-.736-.019-.018-.015-.016-.018-.018-1.592-1.439-.008-.01-.01-.008-.018-.016-.018-.018zm-1.623 1.842-.633.772.018.016.02.015.019.016 1.661 1.364.018.016.018.015.018.016.636-.776-.018-.012-.02-.016.002-.003-.018-.012-1.662-1.365-.02-.015-.018-.016-.021-.015zm78.19 1.876-.021.015-.02.016-.021.015-.068.05-.04.03-1.636 1.212-.04.029.595.803.02-.015.021-.013.021-.016.013-.01.041-.029 1.69-1.255.042-.029-.597-.803zm-79.717.044-.594.803.018.013v.003l.041.028 1.726 1.28.018.015v-.003l.02.016.019.015.594-.804-.018-.012v-.003l-.039-.028-.16-.12-1.586-1.172-.018-.016-.021-.015zm81.15 1.945-.023.016-.02.013-.023.015-1.06.71-.72.484-.021.013-.021.015-.02.013.555.827.02-.013.021-.013.02-.013 1.784-1.193.02-.013.024-.016.02-.013-.555-.832zm-82.582.047-.555.832.02.013.021.015.021.013 1.63 1.09.155.104h.003l.018.013.018.013.02.013.556-.832-.02-.01-.021-.014.003-.002-.021-.013-.623-.416-1.163-.775-.01-.008-.01-.008-.02-.013-.022-.015zm85.151 4.134-.023.013-.023.013v-.003l-.024.013L91.884 27l-.044.024v.002l-.02.01.47.882.023-.013v.002l.02-.013.024-.01 1.912-1.026.046-.023-.47-.884zm1.127 2.181-.026.01-.047.024-1.938.917-.005.003-.018.007-.02.01-.024.01.43.905.022-.01.021-.01.018-.008.005-.003 1.938-.92.023-.01.024-.01.023-.01-.426-.905zm-89.965.05-.429.904.024.01.023.01.023.01 1.94.92.021.01.024.011.02.01.43-.904-.024-.01-.02-.01-.024-.011-.292-.137-.015-.008-.029-.013-.067-.03-1.605-.763zm90.983 2.183-.026.01-.02.01-.027.01-2.005.83-.046.018.385.925.023-.01.023-.01v.002l.023-.01 2.029-.843.023-.01-.382-.922zm-92 .051-.38.923.02.007v.003l.047.018 1.984.822.023.01.021.008.023.01.383-.925-.044-.018-.018-.008-1.424-.586-.047-.02-.519-.213-.023-.01-.023-.01-.024-.01zm-.905 2.282-.336.94.023.008.024.008.023.008 2.023.723.023.008.02.008.024.008.336-.938-.023-.008-.02-.008v-.003l-.024-.007-2.023-.721-.047-.018-.023-.008zm-.79 2.32-.293.959.05.015.534.16.796.241.047.013.702.214.021.008v-.002l.026.007.02.008.293-.953-.024-.008-.023-.008-.023-.008-2.057-.622-.023-.008-.023-.008-.024-.008zm-.68 2.36-.24.971.023.005.026.008.023.005.726.181 1.356.339.024.005.023.005.023.005.243-.966-.023-.006-.023-.005v-.002l-.024-.005-.656-.163-.047-.013-1.38-.344-.012-.005-.013-.003-.023-.005-.026-.008zm97.32 2.333-.026.005-.025.005-.026.005-.026.005-.052.01-2.026.407-.023.005-.026.005-.023.005.196.98.024-.006.026-.005.023-.005 2.103-.419.026-.005.026-.005.026-.005-.197-.982zm-97.88.057-.195.979.026.005.023.005h.003l.023.005.026.006 2.08.413.047.01v-.002l.023.005.194-.98-.024-.004-.023-.006-.023-.005-2.106-.416-.026-.005-.023-.005-.026-.005zm98.653 4.788-.052.005-2.16.214-.026.003-.023.003-.026.002.098.995.026-.003v.003l.05-.005 2.16-.215.051-.005-.098-.997zM.085 47.056l-.049 1h.049v.003l2.17.106.047.002h.023l.05-.997H2.35v-.003h-.023l-.023-.002-2.17-.106-.05-.003zm97.644 2.398v.003h-.024v.997H100.002v-1h-2.274zm-97.73.054v1H2.295l-.002-1H0zm2.303 2.341-.046.003-2.145.108H.085v.003H.036l.05.997H.11l.05-.002 1.035-.052.05-.002 1.059-.052.025-.003h.021l.026-.002-.052-.998h-.023zm94.964 4.613-.145.987.026.002.023.003v.003l.026.002 2.119.313.028.005.024.003.028.005.145-.99-.026-.003v-.002l-2.173-.32-.026-.003-.023-.003-.026-.002zm-94.527.054-.024.003-.023.002-.023.003-2.15.32-.026.003-.023.002.147.99.024-.003.025-.005.024-.002.682-.101.049-.008 1.395-.207.023-.005.024-.002v-.003l.023-.003-.147-.984zm.377 2.31-.023.005v-.002l-.024.005-.023.002-2.18.434.196.982.023-.005.026-.005.023-.005 2.106-.419.023-.005.024-.005.023-.005-.194-.977zm92.693 4.499-.29.958.047.013 1.488.45.442.132.147.044.024.007.025.008.024.008.292-.956-.026-.008-.153-.046-1.95-.59-.024-.007v.002l-.023-.008-.023-.007zm-.71 2.232-.337.94.024.009.023.007.023.008 2.02.724.024.007.026.008.023.008.336-.94-.023-.008-.026-.008-2.044-.731-.023-.008-.024-.008-.023-.008zm-90.182.05-.023.007-.021.008-.013.005-.01.003-2.02.726-.022.005-.005.002-.02.008-.026.008.338.943.047-.015 2.046-.734.044-.016v-.002l.02-.008-.335-.94zm89.362 2.144-.382.923.026.01.02.008.026.01 1.982.82.026.01.02.007.026.01.38-.925-2.054-.847-.023-.008-.024-.01v.002l-.023-.01zm-88.54.05-.024.01v-.003l-.02.01-.024.008-1.45.605-.046.018-.485.201-.047.018-.023.01.382.923.023-.01.024-.01v.002l.023-.01 1.982-.822.023-.01.02-.008.024-.01-.382-.923zm.927 2.152-.023.007-.02.01-.019.008-.005.003-1.938.917-.023.01-.023.011-.024.01.427.905.023-.01.02-.01.019-.009.005-.002 1.046-.496.044-.021.853-.403.02-.01.024-.01.02-.011-.426-.9zm1.029 2.1-.021.01-.02.011-.021.01-.538.287-1.356.726-.044.024v.002l-.021.01.47.882.02-.013.024-.013v.002l.02-.013 1.37-.73.042-.024.485-.258.021-.01v-.003l.02-.01.021-.011-.472-.879zm83.499 2.003-.509.858.02.013.021.01.021.013 1.842 1.1.024.014.02.013.023.013.512-.858-.023-.013-.02-.013-.024-.013-1.84-1.103-.002.002-.021-.013-.02-.013-.003.003-.021-.013zm-82.365.046-.02.01-.021.014-.006.002-.015.008-1.52.912-.32.194-.02.013-.024.013-.02.013.514.858.02-.013.021-.013.02-.013.73-.437 1.113-.669.02-.013.021-.01.021-.013-.514-.856zm1.232 1.99-.02.013-.018.013-.019.01-.002.003-1.786 1.196-.02.013-.02.013-.022.013.556.832.02-.015.021-.013.01-.008.011-.008 1.747-1.165.038-.026.04-.026-.003-.002.02-.013-.553-.83zm78.578 1.884-.592.803.039.029 1.615 1.196.04.029.089.067.02.015v-.002l.021.015.02.016.598-.804-.042-.028-1.746-1.295-.021-.013-.02-.015v.002l-.021-.015zm-77.25.044-.018.013-.02.015-.005.005-.013.008-1.305.97-.039.028-.421.312-.02.016.593.8.021-.015v.003l.018-.016.02-.013 1.618-1.201.04-.029.069-.051.02-.016.019-.013.02-.015-.597-.801zm75.831 1.819-.633.773.02.015.019.016.02.015 1.66 1.36.02.017.018.013.02.018.636-.775-.02-.015-.021-.016-1.68-1.377-.02-.016-.018-.013-.02-.015zm-72.898 1.83-.018.015-.018.015-.018.016-1.122 1.018-.47.426-.018.016-.018.018-.018.015.672.742.018-.018.018-.016.01-.01.008-.008.344-.31.687-.622.036-.031.525-.479.018-.015.015-.016.018-.015-.669-.742zm69.795 1.674-.703.708.018.015.016.016v.002l.018.016 1.516 1.517.021.018.016.018.02.018.706-.708-.018-.018-.018-.016-.019-.018-1.519-1.52-.018-.015-.018-.018-.018-.015zm-68.198.039-.016.015-.018.018-.015.016-1.52 1.522-.018.015-.018.018-.018.016.708.708.016-.018.018-.018.015-.019 1.52-1.516h.002l.016-.018.015-.016h.003l.015-.018-.705-.705zm66.52 1.596-.738.67.018.018.016.018.018.018 1.441 1.59.019.017.015.018.018.018.74-.671-.019-.019-.018-.018-1.457-1.61-.003.003-.015-.018-.016-.018-.003.003-.015-.019zm-64.843.037-.016.018-.015.015-.016.018-1.441 1.592-.008.008-.01.01-.016.018-.018.018.741.672.016-.018.018-.018.016-.018 1.444-1.594.015-.019.016-.018.015-.018-.741-.666zm1.76 1.545-.016.018-.016.018-.015.018-.837 1.02-.527.642-.016.018-.015.02-.016.018.773.636.015-.02.016-.019.007-.007.008-.013.388-.47.558-.68.03-.036.388-.473.016-.018.013-.018.015-.019-.77-.635zm59.5 1.429-.8.594.015.018.015.02h-.002l.015.019.147.199 1.132 1.527.018.02.013.019.016.02.803-.596-.015-.021-.016-.018-.015-.02-1.28-1.727H78.9l-.013-.018h-.002l-.013-.018h-.003l-.013-.018zm-1.899 1.37-.83.555.014.02 1.222 1.822.015.023.013.019.016.023.832-.558-.016-.021-.013-.02-.015-.021L77 89.415l-.003.003-.013-.021-.012-.02-.003.002-.013-.02zm-1.961 1.276-.858.511.013.021.013.02.013.021 1.106 1.843.013.02.013.021.012.02.858-.513-1.144-1.905-.013-.02h-.003l-.01-.019-.013-.02zm-49.946.028-.01.02-.013.022-.003-.003-.01.02-1.106 1.843-.013.02-.013.021-.013.021.858.514.013-.02.013-.021.013-.02.199-.337.026-.041.88-1.468.011-.02.013-.021.01-.02-.855-.51zm47.923 1.147-.881.473.01.021.013.02.01.021 1.016 1.892.013.023.01.02.013.024.881-.473-.013-.02-.013-.024-.726-1.356-.023-.042-.277-.517-.01-.02h-.003l-.01-.02-.01-.022zm-2.083 1.078-.899.429.01.02.01.021.011.02.917 1.944.01.02h.003l.01.024.01.02.905-.426-.01-.023-.166-.351-.775-1.636h-.002l-.01-.02-.01-.021H70.9l-.01-.021zm-2.129.972-.92.382.01.023.008.02.01.024.068.163.754 1.82.01.022.011.024.01.023.923-.383-.01-.023-.01-.02-.833-2.008-.01-.024h-.003l-.008-.02-.01-.023zm-37.476.02-.018.044-.612 1.476-.019.044-.201.488-.01.023-.008.02-.01.024.925.383.018-.047.832-2.005.007-.023.01-.021h-.002l.01-.023-.922-.383zm4.39 1.626-.008.023-.005.02-.008.024-.62 2.057-.008.023-.007.023-.008.023.956.29.008-.024.013-.046.157-.52.013-.046.455-1.49.005-.024.008-.02h-.003l.008-.024-.956-.29zm26.45.633-.97.243.012.046.53 2.109h.002l.006.023.005.023h.002l.006.023.968-.243-.007-.025-.005-.021-.008-.026-.336-1.341-.013-.047-.173-.695-.005-.023h-.003l-.005-.023-.005-.023zm-24.2.013-.005.023h-.002l-.01.046-.388 1.558-.013.047-.119.48-.013.047-.005.023.969.243.005-.023.005-.023.005-.024.525-2.085.005-.023.005-.023.005-.024-.968-.242zm21.922.527-.98.193.006.024.005.023.005.023.419 2.106.005.026.005.023.005.026.982-.196-.005-.024-.005-.025-.006-.024-.42-2.106-.006-.023-.005-.023-.005-.023zm-19.643.01-.01.047-.333 1.682-.01.046-.078.4-.005.024-.005.026-.006.023.982.196.357-1.806.008-.046.067-.328.005-.024h-.003l.006-.023.005-.023-.98-.194zm2.303.424-.003.023-.003.023H42.5l-.003.024-.315 2.126-.002.023-.006.026-.002.023.99.148.002-.026.003-.023.32-2.15.003-.023.002-.024.003-.023-.987-.147zm12.717.305-.994.1.005.047.217 2.16.002.026.003.023.003.026.994-.1-.002-.024-.003-.026-.002-.023-.212-2.14-.006-.046h-.002l-.003-.023zm-2.33.199-1 .051.002.047.109 2.17.002.024v.025h.003v.024l1-.05-.003-.025v-.023l-.002-.026-.052-1.034-.002-.049-.055-1.062v-.026h-.002v-.046zm-3.395.09v2.269h.002v.023h1v-2.222h-.003v-.047h-.002v-.023h-.997z" style="color:#fff;display:inline;fill:#fff;fill-opacity:1;stroke:none;stroke-width:.998996;-inkscape-stroke:none" transform="matrix(.2 0 0 .19999 0 .001)"/></g><g style="display:inline;fill:none;stroke:#fff;stroke-opacity:1"><path stroke="none" d="M54.125 16.647a6.214 6.214 0 0 0-1.222.108 7.196 7.196 0 0 0-3.039 1.367c-1.676 1.293-2.74 3.387-2.095 5.762-2.2-.125-4.347.055-5.977 1.189.256-2.485-.2-4.386-1.106-5.716-.993-1.459-2.51-2.215-4.095-2.325-3.12-.218-6.5 2.061-7.02 6.147-7.094 2.99-10.364 8.26-12.274 14.344-1.923 6.123-2.531 13.076-4.424 19.49-.32.924-1.308 1.399-2.242 1.708-.468.155-.908.265-1.236.385-.163.06-.299.112-.426.233a.474.474 0 0 0-.147.271.468.468 0 0 0 .077.316c.185.276.686.904 2.031 1.245 1.275.323 3.337.428 6.731-.07-.703 1.51-1.27 3.394-1.783 5.915-.09.449-.302.717-.591.922-.29.205-.667.333-1.054.43-.388.095-.778.155-1.109.266-.165.055-.32.123-.455.237a.711.711 0 0 0-.248.494c-.016.342.203 1.192 1.708 1.821 1.493.625 4.261 1.1 9.509.882.618.559 1.235 1.01 1.79 1.325.367.208.705.357 1.013.432.308.074.604.086.856-.073.628-.395 1.065-1.064 1.359-1.922.569.002 1.168.007 1.713-.088.478-.083.937-.26 1.243-.61.698.65 1.401 1.179 2.077 1.548 1.17.64 2.296.842 3.134.323.228-.14.288-.39.298-.625a2.666 2.666 0 0 0-.06-.584c1.635-.966 3.208-2.44 4.096-4.264.325.915.637 1.652 1.051 2.233.52.73 1.219 1.205 2.207 1.442 1.54.368 2.991.544 4.02.5.515-.02.922-.084 1.228-.265a.699.699 0 0 0 .338-.421c.047-.19-.012-.389-.114-.553-.628-1.02-1.226-1.385-1.793-1.615-.567-.23-1.063-.34-1.744-.962a3.059 3.059 0 0 1-.194-.193c.05-.034.098-.07.14-.109.166-.154.292-.34.413-.517.122-.177.237-.346.347-.462.109-.117.198-.17.276-.181.003 0 .066.009.18.11.116.103.258.27.41.443.15.172.31.354.51.49.201.137.482.23.758.135.277-.095.446-.343.514-.576.068-.233.073-.47.08-.698.007-.227.016-.445.05-.604.032-.16.077-.24.146-.287.06-.04.168-.053.35-.013.18.04.403.128.632.217.23.09.458.182.706.201.124.01.259 0 .39-.064a.662.662 0 0 0 .302-.326 1.42 1.42 0 0 0 .039-1.03 2.183 2.183 0 0 0-.217-.453c.063-.02.124-.044.189-.07.155-.063.321-.147.496-.248.176.238.414.509.697.742.388.318.885.59 1.409.431a.774.774 0 0 0 .478-.47c.072-.192.092-.382.11-.563.02-.182.036-.354.07-.478.035-.125.076-.188.13-.225.084-.059.129-.062.248-.029.118.034.284.125.465.23.18.106.377.225.61.298.232.072.52.084.782-.052.255-.132.43-.324.512-.535.082-.21.074-.416.054-.592-.019-.176-.05-.33-.056-.45-.008-.12.006-.188.038-.24.065-.104.093-.109.155-.118a.904.904 0 0 1 .308.04c.135.036.29.087.47.104s.423-.023.592-.194c.243-.246.245-.596.17-.922-.074-.326-.235-.67-.45-1.008-.352-.558-.838-1.102-1.387-1.413 1.017-1.44 1.87-3.002 2.308-4.51.798-.08 1.622-.662 2.428-1.475.435-.438.86-.953 1.261-1.511.519 1.435 1.33 2.189 2.184 3.03-.407.652-.72 1.505-.959 2.556-.535 2.351-.692 5.724-.548 9.967-.402.037-1.255.102-2.32.398-1.19.33-2.488.892-3.111 1.976-.1.173-.173.332-.124.538a.466.466 0 0 0 .178.258c.08.056.16.08.235.093.304.05.616-.03.982-.103.366-.074.763-.16 1.088-.184.325-.023.543.035.602.096.033.034.049.068.054.155.006.087-.011.215-.033.36-.045.287-.14.673.095 1.028.116.172.292.29.476.338.183.048.368.037.55.003.364-.069.735-.234 1.111-.393s.752-.311 1.06-.372c.307-.061.51-.037.659.093.332.289.425.587.532.907.053.16.106.327.214.488a.932.932 0 0 0 .52.37c.656.18 1.397-.21 2.062-.794.572-.502 1.081-1.189 1.312-1.956.927.382 1.946.41 2.974.334-.201.268-.39.553-.532.84-.125.25-.216.5-.246.751-.029.251.016.52.192.727.243.287.623.342.969.294.345-.048.703-.186 1.059-.341.356-.155.706-.33 1.01-.468.305-.137.576-.226.682-.232.167-.01.209.018.256.064.048.047.1.15.155.3.11.301.23.799.716 1.07.142.079.31.085.447.054.137-.031.254-.092.367-.165.227-.147.441-.349.654-.55.212-.202.42-.405.597-.538a.862.862 0 0 1 .323-.168c.264.039.642.347 1.03.646.195.15.395.294.631.377a.908.908 0 0 0 .785-.077c.327-.21.699-.664.988-1.261.222-.46.375-1.012.276-1.548 1.473.098 3.018-.223 4.25-.677.682-.251 1.267-.542 1.696-.835.214-.146.388-.293.521-.45.134-.155.24-.328.233-.547-.006-.217-.152-.404-.307-.501a1.8 1.8 0 0 0-.52-.2c-.38-.098-.841-.17-1.29-.312-.447-.141-.87-.347-1.183-.685-.312-.337-.533-.809-.55-1.568-.327-14.267-4.387-22.94-9.436-27.137-2.525-2.098-5.302-3.062-7.953-3.031-2.589.03-5.052 1.012-7.052 2.8a6.928 6.928 0 0 0-1.87-.516c.08-2.112.407-5.604-3.065-8.571 1.59-1.08 2.222-3.126 1.977-5.132-.264-2.156-1.543-4.319-3.791-5.271a5.175 5.175 0 0 0-1.956-.395zm-.01.607a4.539 4.539 0 0 1 1.733.34c2.023.858 3.185 2.818 3.427 4.792.214 1.753-.3 3.47-1.538 4.431a1.02 1.02 0 0 0-.188-.535 1.05 1.05 0 0 0-.558-.37c.417-.721.587-1.395.565-1.973-.025-.68-.323-1.232-.79-1.52-.468-.288-1.088-.284-1.646.052-.49.295-.943.827-1.295 1.628a4.154 4.154 0 0 0-.39-.204 1.908 1.908 0 0 0-.982-.179c.272-.747.321-1.389.2-1.907-.152-.643-.596-1.09-1.14-1.199-.544-.108-1.147.113-1.633.628-.445.472-.8 1.189-.977 2.166-.065.003-.132.01-.199.026a1.06 1.06 0 0 0-.382.183c-.523-2.09.405-3.858 1.91-5.018 1.115-.86 2.543-1.353 3.883-1.341zm-18.1.367a5.37 5.37 0 0 1 .534.01c1.424.1 2.753.76 3.641 2.065.866 1.271 1.31 3.181.943 5.819l-.162.033c-.04-1.625-.28-2.73-.657-3.444-.202-.383-.45-.66-.744-.817a1.223 1.223 0 0 0-.933-.085c-.607.185-1.113.752-1.488 1.514a6.107 6.107 0 0 0-.587 2.303c-.057-.035-.114-.067-.173-.104-.566-.358-1.185-.449-1.702-.199-.518.25-.885.804-1.052 1.577-.106.49.07.968.34 1.364a3.25 3.25 0 0 0 1.024.946c.448.26.853.46 1.256.62-.332.234-.603.566-.824.917a6.98 6.98 0 0 0-.582 1.194l-.002-.003a1.52 1.52 0 0 0-.615-.454c-.375-.144-.797-.102-1.217.077-.42.179-.856.488-1.318.928-.792.752-1.67 1.885-2.633 3.387-.136-2.225.072-4.083.207-4.902a.3.3 0 0 0-.248-.343.3.3 0 0 0-.347.245c-.316 1.921-1.04 9.029 2.752 13.995-.282 1.133-.404 2.427-.416 3.97-.66.38-1.357.859-2.098 1.451-4.152-3.085-7.28-7.329-6.34-14.509a.3.3 0 0 0-.26-.336.3.3 0 0 0-.335.259c-.956 7.312 2.266 11.819 6.457 14.976-1.438 1.216-3.021 2.838-4.754 4.967-2.167 1.32-3.76 2.478-4.982 4.227a11.6 11.6 0 0 0-.71 1.179c-3.608.564-5.71.447-6.915.142-1.065-.27-1.379-.624-1.56-.876.036-.018.035-.024.09-.044.27-.1.721-.214 1.214-.378.987-.326 2.205-.867 2.625-2.085a.3.3 0 0 0 .003-.013c1.918-6.496 2.528-13.456 4.424-19.493 1.895-6.037 5.033-11.135 12.059-14.042a.3.3 0 0 0 .183-.245c.379-3.662 3.204-5.714 5.902-5.793zm15.2 3.56a.82.82 0 0 1 .181.016c.307.06.564.287.672.75.076.32.066.76-.093 1.302a1.15 1.15 0 0 0-.783-.793 1.196 1.196 0 0 0-1.072.219c-.244.192-.44.483-.558.868l-.034-.015-.038-.013c.16-.89.48-1.5.826-1.866.307-.325.626-.46.9-.468zm-12.219.564a.576.576 0 0 1 .292.072c.158.084.331.257.494.566.142.27.272.64.372 1.119l-.008-.003a1.176 1.176 0 0 0-.977.135c-.54.327-.942 1.04-.96 2.046a4.88 4.88 0 0 1-1.058-.349c.016-.9.227-1.721.535-2.349.33-.67.775-1.097 1.124-1.204a.702.702 0 0 1 .186-.033zm16.992 1.057a.823.823 0 0 1 .463.126c.272.168.487.514.506 1.034.009.239-.027.513-.119.816a1.105 1.105 0 0 0-.437-.783c-.296-.216-.713-.256-1.1-.082-.289.13-.562.365-.809.718a2.39 2.39 0 0 0-.168-.168c.324-.79.73-1.254 1.103-1.478.201-.12.39-.178.561-.183zm-5.16.206a.572.572 0 0 1 .196.024.532.532 0 0 1 .365.354c.057.173.056.419-.106.741a1.415 1.415 0 0 1-.266.096c-.161.035-.298.03-.504-.078-.027-.014-.18-.126-.354-.25l-.06-.042c.084-.367.236-.586.39-.708a.609.609 0 0 1 .339-.137zm-1.884.993a.875.875 0 0 1 .352.08c.172.072.352.188.511.302.16.114.281.22.43.297.318.166.637.189.906.13.27-.06.492-.185.7-.287.417-.205.731-.362 1.342-.083.627.287.833.521 1.005.778.171.256.314.593.718.904.258.198.562.232.86.256.298.023.6.024.84.062.24.037.39.107.46.201.068.091.118.267.031.649-.573.84-1.842 1.79-3.09 2.488-.149.083-.295.165-.442.24.44-.305.837-.61 1.183-.909.888-.767 1.471-1.505 1.569-2.266a.3.3 0 0 0-.261-.336.3.3 0 0 0-.336.261c-.063.49-.527 1.163-1.364 1.886-.82.709-1.977 1.468-3.357 2.23-.498-.069-.932-.345-1.312-.785-.403-.466-.733-1.107-.967-1.812-.463-1.394-.54-3.04-.26-3.95.137-.22.264-.295.384-.324a.46.46 0 0 1 .098-.012zm-9.15.044a.476.476 0 0 1 .166.023c.128.042.246.14.334.349.039.37.065.783.074 1.24-.51.088-1.022.146-1.56.108-.002-.893.344-1.419.672-1.617a.66.66 0 0 1 .315-.103zm15.977.354a.408.408 0 0 1 .276.08c.229.166.38.658-.136 1.305-.03-.002-.065-.003-.094-.006-.265-.02-.47-.074-.545-.131a1.601 1.601 0 0 1-.408-.484c.236-.4.482-.615.682-.705a.652.652 0 0 1 .225-.06zm-9.03.054c.35.002.704.017 1.064.039-.237 1.107-.104 2.622.349 3.984.252.76.606 1.467 1.08 2.016.473.548 1.08.939 1.798 1.002.375.033.831-.096 1.395-.307a13.976 13.976 0 0 0 1.876-.884c1.201-.672 2.418-1.537 3.132-2.457 3.347 2.805 3.014 5.95 2.928 8.118a6.77 6.77 0 0 0-1.29.075 6.963 6.963 0 0 0-4.416 2.602c.098-1.284.206-2.606-.32-4.025a.3.3 0 0 0-.388-.176.3.3 0 0 0-.175.385c.132.357.22.707.276 1.057-.434-1.236-1.108-2.377-1.995-3.272-1.34-1.352-3.19-2.118-5.346-1.764-.428.07-.87.185-1.323.348a.926.926 0 0 1 .057-.046.3.3 0 0 0 .065-.419.3.3 0 0 0-.197-.119.3.3 0 0 0-.224.055 2.2 2.2 0 0 0-.657.752c-.723-.392-1.489-.623-2.232-.63-1.31-.015-2.494.505-3.444 1.322.021-.333.042-.676.077-1.008.055-.513.152-.989.292-1.294.803.068 1.78.12 3.049.201h.003c.797.054 1.366-.03 1.754-.305a.996.996 0 0 0 .39-.555c.057-.22.04-.448-.028-.677-.251-.847-1.134-1.791-2.4-2.726 1.26-.998 2.973-1.303 4.85-1.292zm-11.424.718c.223-.002.474.077.752.253 2.08 1.318 3.76.957 5.268.66 1.323.948 2.2 1.959 2.378 2.557a.678.678 0 0 1 .025.357.352.352 0 0 1-.157.214c-.189.134-.64.243-1.357.197-2.229-.41-3.688-.866-4.674-1.414-.99-.549-1.522-1.178-1.956-2.01a.3.3 0 0 0-.406-.127.3.3 0 0 0-.126.406c.472.905 1.112 1.657 2.196 2.259.425.235.918.45 1.496.648-.295-.03-.564-.065-.814-.106-.976-.16-1.67-.416-2.643-.982a2.712 2.712 0 0 1-.827-.765c-.212-.309-.309-.629-.25-.899.141-.655.42-1.014.723-1.16a.866.866 0 0 1 .372-.088zm1.798 4.333c.233.06.474.111.729.153.205.033.423.06.651.085-.145.385-.212.833-.26 1.295-.065.604-.087 1.228-.133 1.715a6.92 6.92 0 0 0-.868 1.249c-.349-.901-.769-2.012-.638-4.282.163-.116.338-.19.52-.215zm-1.142.905c-.014 2.371.62 3.506.907 4.354-.397 1.007-.554 2.098-.382 3.126-.275.191-.54.38-.79.566.148-2.132.12-3.807-.081-5.041-.09-.559-.216-1.027-.382-1.413.15-.45.383-1.046.695-1.54.01-.018.022-.035.033-.052zm11.79.933c1.543-.003 2.839.658 3.863 1.692 1.628 1.643 2.521 4.273 2.367 6.659a6.253 6.253 0 0 0-.68 3.044c-1.18-2.048-2.877-4.12-5.338-5.455.09-1.246-.315-2.478-1-3.511a7.432 7.432 0 0 0-1.77-1.863c.916-.39 1.77-.565 2.559-.566zm-5.57.044c1.464.016 3.238 1.143 4.281 2.718.975 1.471 1.327 3.27.336 4.933l-.003-.003a1.042 1.042 0 0 0-.661-.282c.094-.942-.04-1.682-.326-2.217-.32-.6-.855-.937-1.405-.927-.55.01-1.076.36-1.4.958-.263.485-.403 1.133-.362 1.933a1.113 1.113 0 0 0-.517-.137 1.633 1.633 0 0 0-.512.083c.012-.828-.137-1.482-.4-1.964-.311-.57-.8-.905-1.32-.902-.52.003-1.013.338-1.331.9-.29.509-.454 1.213-.43 2.1l-.04.01a.957.957 0 0 0-.548.44c-.008.013-.014.027-.021.041-.771-1.38-.618-3.15.16-4.659.887-1.72 2.564-3.047 4.499-3.025zm-8.424.002c.09.003.172.02.248.05.205.078.402.26.582.601.18.341.33.835.434 1.473.204 1.255.23 3.071.039 5.437-1.283 1.032-2.212 2.049-2.853 3.238-.23.427-.42.877-.579 1.354-1.561-2.225-2.238-4.894-2.49-7.277 1.116-1.82 2.118-3.146 2.96-3.946.43-.407.818-.677 1.14-.814.201-.085.37-.12.52-.116zm36.123 2.925c2.503-.028 5.131.894 7.56 2.912 4.858 4.037 8.895 12.53 9.22 26.688.02.874.295 1.518.708 1.963.412.446.944.69 1.447.848.502.158.988.237 1.32.323.166.043.291.09.346.124.055.035.029.012.029.013 0-.013-.007.047-.088.142a2.153 2.153 0 0 1-.406.341c-.37.253-.919.53-1.563.768-1.273.469-2.925.787-4.377.61-1.303-.784-3.242-1.079-5.072-1.021-.596.019-1.18.074-1.726.165.399-1.519.598-2.507.428-4.325.186.217.374.417.569.591.68.611 1.461.954 2.217.7.203-.068.304-.22.393-.384a2.99 2.99 0 0 0 .227-.605c.136-.483.25-1.13.338-1.905.177-1.55.25-3.614.16-5.824-.179-4.42-.978-9.405-3.072-12.01a.3.3 0 0 0-.42-.05.3.3 0 0 0-.047.425c1.9 2.364 2.763 7.296 2.94 11.658.089 2.182.017 4.224-.155 5.734-.086.755-.199 1.38-.32 1.81-.06.214-.124.38-.178.482-.055.102-.106.117-.057.101-.484.163-1.028-.04-1.626-.576-.597-.536-1.201-1.386-1.715-2.362-1.028-1.952-1.69-4.43-1.504-5.847.285-2.168-.259-4.25-.796-6.28-.537-2.03-1.067-4.007-.842-5.971a.3.3 0 0 0-.264-.333.3.3 0 0 0-.33.263c-.102.887-.056 1.763.064 2.63-.623-.81-1.419-1.625-2.346-2.224-.697-.45-1.48-.775-2.31-.868a4.344 4.344 0 0 0-2.292.367 2.35 2.35 0 0 0-1.02-1.153c-.333-.187-.706-.187-.954-.008-.248.18-.372.45-.478.726-.106.277-.187.575-.274.835-.074.22-.157.408-.233.522-.722-1.05-1.483-1.686-2.198-2.003a2.607 2.607 0 0 0-1.124-.24 1.77 1.77 0 0 0-.925.274c-.52.338-.783.976-.636 1.643.116.525.466 1.06 1.077 1.546a2.015 2.015 0 0 0-.547.312 1.884 1.884 0 0 0-.36.398c-.764-1.154-2.024-1.653-2.95-1.457a1.263 1.263 0 0 0-.683.372 1.093 1.093 0 0 0-.26.532c-.476-.84-.742-1.673-.838-2.473-.196-1.644.326-3.161 1.29-4.338 1.926-2.354 5.585-3.321 8.756-.985a.3.3 0 0 0 .419-.062.3.3 0 0 0-.062-.418 7.968 7.968 0 0 0-.93-.592c1.862-1.594 4.107-2.477 6.47-2.504zM39.903 36.18c.268-.002.561.159.796.589.078.143.148.315.202.517a1.433 1.433 0 0 0-.597-.297v-.003a1.045 1.045 0 0 0-1.05.393c-.213.278-.342.67-.384 1.196-.044-.009-.087-.014-.13-.02-.02-.8.136-1.393.355-1.778.242-.427.54-.596.808-.597zm4.525.028c.306-.005.624.163.863.61.083.157.154.35.204.576a1.192 1.192 0 0 0-.75-.351c-.377-.028-.755.18-.994.56-.197.313-.32.733-.354 1.277a1.841 1.841 0 0 1-.117-.039c-.107-.898.033-1.56.264-1.987.245-.451.578-.64.884-.646zm-4.38 1.35c.038 0 .08.005.124.015.315.07.744.522.822 1.11-.051.02-.101.04-.153.058-.446.15-.877.227-1.25.07-.044-.02-.087-.035-.13-.052.026-.526.146-.85.272-1.013.106-.139.2-.19.315-.189zm4.6.082a.466.466 0 0 1 .056 0c.272.02.693.403.783 1.168-.48.086-.976.219-1.493.175.025-.507.134-.854.263-1.059.132-.21.26-.278.39-.284zm3.234.279c3.069 1.745 4.891 4.742 5.982 7.253.812 1.868.488 5.507.008 7.83-.586.575-1.148 1.428-1.638 2.416-.73-1.047-1.02-2.84-1.538-5.44-.413-2.077-1.966-3.595-2.509-6.47a.3.3 0 0 0-.348-.238.3.3 0 0 0-.24.35c.067.358.147.696.24 1.017-.989-.905-1.99-1.116-2.794-1.132a5.556 5.556 0 0 0-.348-.253c.476-.352 1.017-.913 1.496-1.514.316-.398.594-.809.775-1.194.15-.32.258-.638.188-.94.37-.546.604-1.114.726-1.685zm-11.234.6c.156.5.4.977.741 1.41.032.638.302 1.28.633 1.84.243.41.516.77.77 1.052a6.202 6.202 0 0 0-1.323.816c.062-.218.125-.45.202-.713a.3.3 0 0 0-.207-.372.3.3 0 0 0-.37.204c-.232.796-.331 1.262-.617 1.884a.3.3 0 0 0-.002.008 6.664 6.664 0 0 0-1.179 2.405c-1.02-.106-2.245.129-3.677.85.046-2.34.366-4.017 1.127-5.429.768-1.425 2.003-2.615 3.902-3.956zm5.48.444c.198.003.259.073.507.225.248.151.625.33 1.276.392.727.07 1.36-.136 1.814-.206.227-.035.4-.035.52.005.117.04.209.105.312.313.023.046.017.279-.132.596-.15.318-.406.702-.703 1.075-.342.43-.755.846-1.106 1.155.962-1.022 1.17-1.914 1.248-2.503a.3.3 0 0 0-.258-.336.3.3 0 0 0-.339.258c-.086.651-.26 1.548-1.687 2.731a5.985 5.985 0 0 0-1.34-.354 6.236 6.236 0 0 0-2.846.269 5.863 5.863 0 0 1-.855-1.119c-.318-.537-.553-1.149-.555-1.646-.002-.241.04-.401.093-.493a.303.303 0 0 1 .201-.16c.194-.06.597-.006 1.08.198.586.248 1.182.11 1.675-.057.492-.166.938-.345 1.095-.343zm17.963 3.7c.25-.006.54.048.863.191.602.267 1.307.846 2 1.876a2.26 2.26 0 0 1-.483.256c-.465-.557-.911-.916-1.323-1.119-.452-.222-.88-.263-1.214-.095-.293.145-.467.453-.484.785a1.772 1.772 0 0 1-.354-.703c-.1-.456.057-.804.378-1.013.16-.104.368-.172.617-.178zm4.74.01a.553.553 0 0 1 .206.086c.758.427 1.03 1.21.966 2.266-.063 1.056-.498 2.338-1.129 3.558-.203.392-.429.776-.667 1.147.853-1.574 1.325-3.3 1.424-4.855a.3.3 0 0 0-.013-.1c-.08-.276-.33-.421-.6-.45-.269-.03-.58.065-.85.307a.3.3 0 0 0-.023.424.3.3 0 0 0 .424.023c.16-.144.299-.167.385-.158.059.007.053.01.06.013-.212 2.88-1.804 6.416-4.734 8.17-.224-.034-.505-.188-.804-.456-.334-.301-.682-.732-1-1.218a10.408 10.408 0 0 1-1.209-2.638c.222-.018.475.037.64-.077.298-.206.485-.51.642-.825.314-.627.549-1.325.868-1.584.416-.337 1.133-.377 1.953-.47.82-.093 1.754-.276 2.44-1.08.188-.221.29-.495.384-.778.095-.282.176-.575.267-.811.09-.236.2-.402.268-.452.035-.025.059-.044.101-.042zm-23.51.181a5.413 5.413 0 0 1 2.17.421 4.985 4.985 0 0 1 2.35 2.024c.401.658.685 1.459.809 2.4a1.068 1.068 0 0 0-.706-.026c-.645.193-1.218.926-1.578 2.507-.035-.014-.07-.03-.106-.042a1.368 1.368 0 0 0-.706-.054c.276-.583.392-1.116.38-1.581-.018-.738-.38-1.317-.92-1.538-.27-.11-.57-.125-.87-.046a1.972 1.972 0 0 0-.871.517c-.456.447-.837 1.153-1.067 2.152-.16-.135-.338-.245-.574-.25a.686.686 0 0 0-.426.144 1.198 1.198 0 0 0-.31.385c-.479.879-.33 1.889.15 2.827.1.197.218.393.346.587-.162 0-.336.012-.522.038-.656.092-1.454.34-2.292.76-1.425.714-2.96 1.932-3.997 3.731a19.98 19.98 0 0 0-.36-2.398.3.3 0 0 0-.356-.23.3.3 0 0 0-.23.357c.575 2.682.432 4.762.426 6.455-.003.846.029 1.598.215 2.281.186.684.54 1.296 1.15 1.81.653.548 1.636 2.147 2.297 3.63.33.74.59 1.46.715 2 .063.27.089.496.083.64-.006.145-.044.16-.01.14-.565.35-1.46.248-2.532-.338-1.074-.587-2.286-1.638-3.411-3.019-2.25-2.76-4.158-6.842-4.158-11.19a.3.3 0 0 0-.3-.3.3.3 0 0 0-.3.3c0 1.424.196 2.817.536 4.144.002.02.04.387-.005.77-.023.197-.069.39-.135.52-.066.129-.125.183-.217.203-.165.038-.311-.02-.511-.188-.2-.169-.417-.44-.639-.721-.222-.28-.447-.57-.723-.783-.276-.212-.66-.34-1.031-.189-.353.144-.542.481-.597.804-.055.323-.023.66.008.992.03.333.06.66.039.918-.022.257-.083.418-.21.521.006-.004.021.003-.033-.007a1.078 1.078 0 0 1-.27-.111c-.227-.124-.51-.332-.787-.502a2.255 2.255 0 0 0-.424-.212c-.147-.051-.317-.085-.499-.015-.181.07-.31.246-.361.434-.051.184-.057.397-.037.67.025 2.353 1.509 4.649 3.12 6.291-4.812.155-7.378-.31-8.672-.852-1.36-.569-1.346-1.142-1.341-1.238.001-.036 0-.037.038-.07a.852.852 0 0 1 .256-.124c.254-.085.645-.15 1.062-.253.417-.104.868-.246 1.259-.522a2.05 2.05 0 0 0 .832-1.292c.735-3.615 1.561-5.86 2.723-7.522s2.672-2.765 4.84-4.083a.3.3 0 0 0 .077-.07c5.101-6.28 8.824-8.003 11.057-7.821a8.454 8.454 0 0 0-.127 1.046.3.3 0 0 0 .282.318.3.3 0 0 0 .317-.282c.092-1.559.584-2.801 1.313-3.736a.3.3 0 0 0 .072-.096c1.101-1.35 2.71-2.024 4.3-2.036zm26.726.729c.921-.033 1.784.294 2.581.809 1.261.815 2.31 2.122 2.936 3.175.157.708.342 1.41.527 2.109.536 2.027 1.048 4.027.783 6.046-.22 1.674.495 4.17 1.568 6.207.175.332.363.643.556.943.376 2.642.16 3.483-.365 5.45-.828.2-1.53.503-2.007.925-1.306.138-2.53.162-3.535-.336-.495-.75-1.584-1.398-2.729-1.907a11.468 11.468 0 0 0-1.744-.62c-.4-.103-.761-.17-1.08-.178-.142-4.207.028-7.517.54-9.77.263-1.154.617-2.03 1.039-2.605.421-.576.885-.854 1.455-.891a.3.3 0 0 0 .281-.32.3.3 0 0 0-.32-.28c-.668.044-1.253.37-1.724.915-.916-.9-1.66-1.59-2.113-3.17.254-.397.496-.806.713-1.226.658-1.272 1.12-2.611 1.191-3.798.023-.38.001-.749-.07-1.093a3.858 3.858 0 0 1 1.517-.385zm-22.299.584c.85.159 1.799.68 2.757 2.258.642 1.414 1.366 2.49 1.602 3.66.08 2.19.67 5.917.212 8.839-.23 1.468-.72 2.705-1.618 3.462-.871.736-2.157 1.066-4.126.68-.494-1.815-1.327-4.163-3.18-7.24a6.902 6.902 0 0 0-.133-.512l.008.008c.934.784 1.991 1.444 2.98 1.873.914.397 1.766.615 2.457.484l.028-.006.018-.005c.04-.008.08-.016.12-.028l.007-.003a.3.3 0 0 0 .049-.02.783.783 0 0 0 .39-.38c.094-.178.155-.388.202-.626.093-.475.119-1.068.098-1.705-.04-1.23-.253-2.596-.636-3.473.243-1.033.347-1.983.331-2.848h.003a.896.896 0 0 0-.006-.056c-.034-1.413-.383-2.596-.958-3.54a5.667 5.667 0 0 0-.605-.822zm14.627.103c.125-.003.296.03.51.135.265.13.589.372.943.757-.17.03-.344.057-.522.077-.297.034-.603.053-.902.093l-.003-.002c-.235-.264-.336-.508-.351-.68-.018-.196.04-.285.152-.341a.412.412 0 0 1 .173-.039zm-4.317 1.078c.675-.018 1.737.456 2.292 1.509l-.05.116c-.615-.731-1.44-.972-2.038-.7a.933.933 0 0 0-.514.654c-.28-.44-.386-.784-.385-1.01 0-.172.049-.275.126-.36a.667.667 0 0 1 .365-.186 1.14 1.14 0 0 1 .204-.023zm.664 1.431c.345-.006.893.205 1.3.827l-.008.016c-.139.276-.287.488-.445.597-.145.1-.303.14-.576.075-.456-.471-.639-.854-.67-1.086-.03-.242.04-.32.187-.387a.54.54 0 0 1 .212-.042zm-1.82.17a11.53 11.53 0 0 0 1.616 1.73c-.084.443-.455 1.91-1.887 3.537.278-1.617.46-3.578.272-5.266zm-12.412.518a.744.744 0 0 1 .3.054c.29.119.53.435.545.995.003.147-.012.31-.047.488a.986.986 0 0 0-.553-.465c-.393-.126-.855.033-1.19.432-.264.312-.469.767-.587 1.387a16.793 16.793 0 0 1-.243-.258c.198-1.132.584-1.85.979-2.238.283-.278.558-.39.796-.395zm3.749.762a.473.473 0 0 1 .478.398h.003c.003.262-.008.535-.029.816a.695.695 0 0 0-.439-.227c-.357-.036-.665.21-.876.571a2.944 2.944 0 0 0-.318.884c-.048-.05-.098-.1-.152-.148.336-1.63.885-2.176 1.212-2.273a.488.488 0 0 1 .121-.021zm-3.798.863c.04 0 .077.005.11.015.137.044.272.187.3.473.028.269-.053.66-.366 1.124l-.034.05-.003.002a.855.855 0 0 1-.333.134c-.15.023-.34.004-.615-.124.094-.712.3-1.165.504-1.408.168-.2.316-.264.437-.266zm14.428.527c.272.694.658 1.456 1.106 2.14.337.515.706.983 1.098 1.336.283.254.58.455.897.552-.706 2.305-2.491 4.86-4.266 6.776-.928 1.001-1.854 1.831-2.602 2.364-.374.266-.706.46-.956.56-.25.102-.4.084-.406.08-.352-.179-.573-.702-.605-1.524-.03-.822.13-1.886.427-2.987.592-2.201 1.744-4.567 2.79-5.55 1.488-1.398 2.191-2.823 2.517-3.747zm-10.676.194c.028.003.124.047.198.31.07.244.093.64.006 1.165-.228.151-.376.183-.476.17-.106-.012-.212-.078-.346-.208.057-.543.185-.927.32-1.158.146-.25.269-.282.298-.28zm-6.592.124c.006-.002.01 0 .016 0 .024 0 .145.053.294.194.298.28.642.804 1.122 1.072.451.252.84.333 1.175.282.335-.052.586-.226.788-.385.203-.16.367-.306.522-.38.155-.074.29-.1.548-.013.41.139.684.567 1.057.943.186.188.419.37.728.406.185.021.395-.12.595-.207.296.75.537 1.954.573 3.075.02.606-.009 1.171-.087 1.574-.04.2-.094.36-.145.457-.051.096-.087.11-.08.109-.009.002-.02.002-.029.005-.146.032-.646-.024-1.237-.259a10.03 10.03 0 0 1-2.057-1.147c-1.418-1.014-2.714-2.471-2.904-3.964a.3.3 0 0 0-.336-.258.3.3 0 0 0-.259.333c.119.93.57 1.792 1.186 2.558-.632-.61-1.162-1.27-1.49-1.912-.426-.832-.522-1.596-.158-2.263a.664.664 0 0 1 .15-.2c.015-.012.022-.018.028-.02zm-.253 3.943c.118-.002.221.003.307.016.172.025.26.084.274.1.511.595 1.016 1.881 1.042 3.328.024 1.357-.35 2.852-1.447 4.127a.618.618 0 0 0-.132-.075.79.79 0 0 0-.527-.002c-.323.098-.621.313-.936.537-.314.224-.637.463-.925.612-.288.15-.515.194-.664.143-.105-.036-.098-.043-.116-.124-.019-.082-.01-.24.01-.424.021-.185.053-.393.029-.618-.025-.224-.133-.486-.37-.64a.868.868 0 0 0-.661-.122c-.217.05-.404.174-.571.333-.336.318-.615.792-.845 1.341-.332.79-.564 1.73-.58 2.577a2.982 2.982 0 0 1-.381-.874c-.161-.59-.195-1.289-.192-2.119.003-.861.04-1.862-.005-3.007.93-2.17 2.631-3.592 4.189-4.373.785-.393 1.535-.622 2.108-.702.143-.02.275-.031.393-.034zm11.674.372c.23.711.519 1.302.93 1.778-.387.87-.72 1.806-.969 2.729-.036.135-.065.268-.098.403.008-.05.02-.098.028-.148.237-1.512.207-3.192.109-4.762zm-9.452 3.08c1.622 2.943 2.25 5.118 2.656 6.79.23.951.389 1.742.623 2.432.234.69.553 1.283 1.095 1.778.766.699 1.41.867 1.923 1.075.513.208.934.437 1.511 1.375.048.078.038.098.04.093 0-.005.002.01-.063.049-.129.077-.478.164-.945.183-.936.04-2.358-.127-3.856-.485-.88-.211-1.408-.577-1.857-1.207-.438-.614-.785-1.505-1.192-2.713a7.01 7.01 0 0 0 .344-1.478c.033-.28.037-.503-.003-.695a.755.755 0 0 0-.286-.476.705.705 0 0 0-.481-.106 1.686 1.686 0 0 0-.431.111c-.278.105-.551.248-.755.318a.76.76 0 0 1-.214.047.57.57 0 0 1-.099-.393c.01-.172.061-.386.127-.62.117-.417.283-.919.145-1.43 1.293-1.421 1.742-3.125 1.718-4.648zm16.343 1.372c.425.233.918.731 1.24 1.24.187.296.32.595.372.822.052.228.015.34-.013.367-.022.023-.024.024-.108.016-.085-.008-.22-.048-.377-.088a1.32 1.32 0 0 0-.55-.05.846.846 0 0 0-.572.394.984.984 0 0 0-.129.594c.011.181.047.344.062.48a.68.68 0 0 1-.02.31c-.028.073-.071.14-.228.22-.106.055-.188.053-.326.01a2.704 2.704 0 0 1-.488-.245c-.181-.106-.374-.222-.602-.287a.904.904 0 0 0-.757.109c-.207.143-.312.36-.367.56-.055.2-.07.401-.088.577-.018.175-.04.329-.072.416-.033.087-.04.09-.09.106-.218.066-.538-.062-.856-.323a3.782 3.782 0 0 1-.57-.605l.077-.052c.796-.567 1.742-1.418 2.692-2.444a26.13 26.13 0 0 0 1.77-2.127zm-7.227 1.383a8.903 8.903 0 0 0-.15 1.837c.007.195.026.383.054.563a1.7 1.7 0 0 1-.573.075 8.938 8.938 0 0 1-.59-.039c.61-.65 1.006-1.494 1.259-2.436zm-15.268 1.227c.047-.003.09.01.15.05.072.046.085.083.098.2.013.119-.004.294-.026.487-.022.192-.051.4 0 .625a.796.796 0 0 0 .504.558c.391.135.785.004 1.137-.178.352-.183.689-.437.997-.657.308-.22.597-.401.762-.452.083-.025.118-.019.127-.015.009.003.03.007.067.095.139.323.028.744-.106 1.223-.067.239-.134.486-.147.749-.014.263.037.55.22.796.111.15.304.223.46.227.155.004.29-.033.426-.08.272-.094.546-.237.772-.323.114-.043.215-.071.28-.077.064-.007.077.005.077.005s.022.009.041.103c.02.095.026.263-.002.504-.306 2.57-2.244 4.74-4.341 6.028a13.925 13.925 0 0 0-.644-1.71c-.66-1.48-1.552-3.025-2.374-3.768-.154-.8.069-2.094.475-3.062.21-.5.468-.914.7-1.134a.712.712 0 0 1 .295-.186.326.326 0 0 1 .052-.008zm-12 .917c.103-.011.192.033.33.14.186.142.4.4.621.68.22.278.45.575.724.806.274.23.636.404 1.028.315.295-.067.503-.289.62-.52.018-.034.03-.07.044-.105a19.821 19.821 0 0 0 1.723 3.687c.077 1.543-.01 2.872-.266 3.897-.26 1.04-.69 1.752-1.266 2.113-.036.023-.17.052-.395-.002a3.528 3.528 0 0 1-.855-.367c-.667-.378-1.477-1.006-2.25-1.793-1.548-1.575-2.941-3.787-2.962-5.894a.3.3 0 0 0-.003-.024 1.547 1.547 0 0 1 .018-.478l.008-.03a.345.345 0 0 1 .075.017c.077.027.188.086.31.16.244.15.529.36.814.515.143.077.286.143.447.173.161.03.365.01.52-.116.294-.24.403-.597.431-.938.028-.342-.011-.693-.041-1.021-.03-.328-.049-.63-.013-.837.035-.207.08-.288.23-.35a.402.402 0 0 1 .108-.028zm27.32.838c.136.372.35.673.669.858.208.25.355.485.424.69a.764.764 0 0 1-.037.627.19.19 0 0 1-.08.006c-.108-.009-.31-.077-.532-.163-.222-.087-.47-.19-.726-.246-.257-.056-.553-.07-.809.101-.242.162-.353.423-.403.664-.05.241-.053.486-.06.708-.006.223-.02.424-.056.548-.037.124-.057.15-.135.176-.064.022-.108.015-.222-.062a2.48 2.48 0 0 1-.4-.388c-.144-.165-.289-.346-.458-.496-.168-.15-.386-.298-.664-.258-.267.038-.474.195-.633.364-.158.17-.284.362-.403.535-.118.173-.23.328-.325.416a.545.545 0 0 1-.088.067 4.41 4.41 0 0 1-.383-.855c-.215-.635-.373-1.417-.607-2.38-.021-.088-.047-.186-.07-.277 1.752.293 3.08.032 4.044-.63.534.038.896.085 1.225.09a2.43 2.43 0 0 0 .729-.095zm14.764 3.739c.246.006.587.057.966.155.506.13 1.087.338 1.651.589 1.061.472 2.07 1.139 2.445 1.648-.154.693-.632 1.387-1.184 1.871-.58.51-1.244.74-1.509.667-.102-.028-.132-.059-.178-.127a1.623 1.623 0 0 1-.142-.343c-.105-.315-.255-.775-.708-1.168-.332-.289-.77-.31-1.168-.23-.399.079-.798.249-1.176.408-.377.16-.735.308-.992.357a.71.71 0 0 1-.29.005.178.178 0 0 1-.126-.09c-.058-.088-.046-.304 0-.603.023-.15.05-.314.039-.49a.838.838 0 0 0-.225-.536c-.283-.289-.682-.302-1.072-.274-.39.029-.805.119-1.166.192a3.84 3.84 0 0 1-.61.08c.491-.825 1.617-1.367 2.73-1.675 1.123-.31 2.185-.395 2.487-.423a.3.3 0 0 0 .016-.003c.058-.008.13-.012.212-.01zm-9.447.276a.3.3 0 0 0-.062.01c-1.346.37-2.261 1.41-2.845 2.869a1.07 1.07 0 0 0-.34-.088.942.942 0 0 0-.83.406c-.266.379-.576 1.071-1.008 1.728-.432.657-.966 1.228-1.524 1.354a.3.3 0 0 0-.215.4c.34.884.832 1.45 1.419 1.76.49.26 1.027.338 1.576.329-.011.494-.016.999-.01 1.519-.15.18-.275.382-.334.431-.038.033-.036.037-.103.029-.063-.008-.206-.066-.4-.196-.415-.777-.862-1.513-1.481-2.006-.648-.515-1.493-.746-2.51-.47a.3.3 0 0 0-.208.375c.54 1.82.072 2.918-.171 4.32l-.003.01c-.001.008 0 .012-.002.019v.002a.363.363 0 0 0-.005.101.31.31 0 0 0 .033.114c.025.05.047.08.073.113.05.068.113.141.19.233.157.183.372.428.59.718.437.58.884 1.34.956 2.05a.3.3 0 0 0 .398.253c.683-.24 1.417-.37 2.018-.799.552-.394.89-1.105.935-2.191 2.609-.27 4.374-1.176 5.419-2.457 1.08-1.327 1.424-2.996 1.364-4.603-.06-1.606-.519-3.16-1.07-4.325-.275-.582-.573-1.068-.87-1.419-.298-.35-.587-.614-.98-.589zm.228.703c.08.056.181.14.294.274.248.292.527.74.786 1.287.452.956.845 2.218.974 3.527-.868-.653-1.745-1.039-2.628-1.137-.867-.097-1.732.09-2.568.543.092-.524.203-1.014.34-1.46.455-1.476 1.148-2.475 2.174-2.951-.172.92-.124 1.891.555 2.816a.3.3 0 0 0 .421.062.3.3 0 0 0 .065-.416c-.618-.84-.618-1.66-.413-2.545zm-27.147.424c.313.459.635.897.967 1.305.353.433.715.832 1.08 1.201-.184.234-.49.362-.918.437-.416.073-.92.078-1.431.077.21-.859.307-1.875.302-3.02zm50.231.408c1.64-.008 3.337.303 4.395.93.178.417.073.937-.157 1.414-.244.504-.657.945-.77 1.018-.092.059-.144.058-.264.015-.12-.042-.283-.151-.463-.29-.358-.275-.76-.679-1.31-.759-.308-.045-.546.113-.77.282-.223.169-.441.38-.65.579-.21.198-.412.382-.567.483a.642.642 0 0 1-.175.085c-.033.008-.023.002-.02.003-.249-.139-.32-.402-.445-.747-.063-.173-.138-.364-.303-.525-.165-.16-.42-.252-.708-.235-.287.017-.57.14-.891.285-.322.144-.67.318-1.005.465-.335.146-.66.263-.902.297-.242.034-.357 0-.432-.088-.044-.052-.065-.126-.049-.271.017-.146.081-.342.186-.553.208-.418.562-.891.894-1.256.627-.607 2.293-1.068 4.073-1.124.11-.004.221-.007.333-.008zm-24.795 1.093c-.256.004-.466.137-.625.297a1.15 1.15 0 0 0-.331.62c-.036.218.006.433.1.628.095.196.254.389.507.455.285.074.555-.02.773-.165.218-.145.404-.352.462-.63a1.048 1.048 0 0 0-.144-.753c-.136-.227-.374-.432-.69-.45l-.052-.002zm.003.602h.018c.065.004.14.051.204.158a.551.551 0 0 1 .072.323.513.513 0 0 1-.204.253c-.114.075-.244.095-.292.083-.016-.005-.073-.046-.116-.135a.54.54 0 0 1-.05-.268.64.64 0 0 1 .166-.295.393.393 0 0 1 .202-.119zm-1.894.16a.476.476 0 0 1 .08 0 .515.515 0 0 1 .183.06l-.036.11c-.108.35-.197.724-.276 1.112-.357.349-.679.614-.941.832-.276.23-.498.388-.615.664a.3.3 0 0 0 .158.393.3.3 0 0 0 .395-.158c.016-.037.178-.214.447-.439.113-.094.246-.204.388-.326-.02.132-.036.266-.052.4-.537.217-.77.548-.98.768a.3.3 0 0 0 .011.427.3.3 0 0 0 .424-.01c.18-.19.284-.343.467-.47-.04.454-.07.926-.09 1.413-.492.012-.935-.055-1.315-.256-.387-.206-.704-.654-.985-1.254.628-.29 1.141-.813 1.527-1.4.465-.706.817-1.458.998-1.716.075-.107.138-.142.212-.15zm2.62 1.838c.113.001.227.008.34.02.881.098 1.792.536 2.735 1.344.015 1.427-.316 2.842-1.23 3.964-.952 1.167-2.543 2.045-5.13 2.281a8.166 8.166 0 0 1-.408-.32.3.3 0 0 0-.033-.029 3.398 3.398 0 0 1-.432-.431l-.039-.05a.3.3 0 0 0-.002-.002.3.3 0 0 0-.018-.023c-.12-.167-.142-.272-.14-.341l.003-.016a.3.3 0 0 0 .028-.098.757.757 0 0 1 .098-.152c.048-.06.107-.127.171-.2.164.092.315.151.465.169a.755.755 0 0 0 .563-.168c.267-.228.36-.496.437-.563a.3.3 0 0 0 .103-.23c-.021-1.62.039-3.11.21-4.416.768-.51 1.52-.75 2.279-.74zM44.23 75.5c-.364.012-.766.154-1.137.476-.535.466-.673 1.028-.496 1.44.177.411.637.651 1.068.5.381-.132.533-.432.702-.635.17-.202.36-.385.905-.512a.3.3 0 0 0 .232-.276c.025-.454-.346-.79-.806-.93a1.46 1.46 0 0 0-.468-.062zm4.065.171c.48 0 .877.146 1.23.427.488.388.905 1.018 1.294 1.736-.067.075-.143.155-.217.248l-.002.003a2.572 2.572 0 0 0-.564-.385 1.81 1.81 0 0 0-1.162-.148.3.3 0 0 0-.236.354.3.3 0 0 0 .352.236c.312-.062.55-.016.783.098.194.094.384.242.573.426l-.002.039a.949.949 0 0 0 .064.367 3.876 3.876 0 0 0-1.483.977.3.3 0 0 0 .008.426.3.3 0 0 0 .424-.01 3.2 3.2 0 0 1 1.382-.871c.09.103.199.21.323.323-.1.438-.173.78-.992 1.336a.3.3 0 0 0-.08.418.3.3 0 0 0 .418.08c.747-.506 1.017-1.006 1.155-1.418l.068.049c-.013 1.034-.298 1.49-.726 1.796-.393.28-.998.424-1.626.628a5.577 5.577 0 0 0-.917-2.006c-.233-.309-.455-.565-.61-.746a5.166 5.166 0 0 1-.14-.17c.219-1.208.572-2.446.174-4.164.18-.033.349-.048.509-.049zm-4.047.427c.101-.002.193.013.277.038.197.06.236.163.282.24-.37.16-.741.333-.9.523-.217.26-.287.398-.441.452-.106.037-.256-.028-.318-.173-.063-.146-.07-.394.338-.75.279-.242.54-.327.762-.33zm.298 3.266a.3.3 0 0 0-.148.046c-.254.158-.433.42-.61.744a4.459 4.459 0 0 0-.42 1.088c-.09.383-.124.766-.008 1.109a.949.949 0 0 0 .894.628.94.94 0 0 0 .503-.12.71.71 0 0 0 .298-.376c.098-.29.05-.583-.008-.897-.115-.628-.31-1.355-.2-1.855a.3.3 0 0 0-.224-.36.3.3 0 0 0-.077-.007zm3.04.635c0 .007 0 .01-.002.016-.006.023-.031.076-.03.075l-.055.067a.3.3 0 0 0 .088-.158zm-3.25.414c.046.45.055.931.12 1.282.051.286.057.514.03.594-.013.04-.018.044-.039.057-.02.012-.075.032-.188.03-.242-.002-.28-.054-.334-.216-.054-.162-.049-.46.026-.78s.214-.663.365-.939c.008-.015.012-.013.02-.028z" style="color:#fff;display:inline;fill:#fff;fill-opacity:1;stroke:none;stroke-linejoin:round;stroke-dashoffset:20;stroke-opacity:1;-inkscape-stroke:none" transform="matrix(.2 0 0 .19999 .003 -.013)"/></g><g style="display:inline"><path d="m51.933.028-.215 4.416 1 .049.214-4.416Zm4.888.429-.648 4.374.992.145.646-4.372zm14.082 4.11-1.886 3.998.902.427 1.888-3.995zm-41.85.024-.905.429 1.894 3.995.905-.43zm44.054 1.057L71.025 9.55l.883.47 2.083-3.902zM20.601 9.55l-.804.597 2.636 3.547.8-.594zm-1.951 1.49-.773.636 2.807 3.416.772-.635zm64.537 1.551-2.967 3.276.742.672 2.969-3.276zm3.506 3.432-3.274 2.971.672.74 3.274-2.97zm1.623 1.84L84.9 20.67l.635.773 3.416-2.806zm4.3 5.968-3.791 2.277.514.858 3.79-2.277zm-85.255.047-.514.855 3.793 2.274.514-.858zm-1.23 2.121-.47.884 3.896 2.083.473-.884zM96.9 32.648l-4.16 1.49.336.941 4.163-1.488zm.793 2.32-4.227 1.287.29.959 4.23-1.287zm.68 2.36-4.287 1.077.246.969 4.286-1.078zm1.01 4.8-4.372.652.145.99 4.374-.652zm-98.77.052-.147.987 4.374.649.148-.99ZM.29 44.612l-.098.994 4.398.432.098-.995zm99.625 2.395-4.413.22.047.997 4.416-.22zm-4.364 4.69-.046 1 4.416.214.046-1zm-.137 2.232-.098.998 4.4.429.099-.995zm-90.822.047-4.397.437.098.994 4.4-.434zM94.81 58.36l-.194.982 4.336.86.193-.982zm-.465 2.189-.243.969 4.289 1.072.243-.97zm-88.675.046-4.29 1.075.244.969 4.286-1.072zm.573 2.163-4.23 1.284.29.956 4.23-1.284zm85.192 6.238-.429.904 4 1.889.427-.905zm-.982 2.01-.472.881 3.901 2.083.47-.884zm-2.255 3.863-.553.832 3.677 2.452.555-.832zm-73.743 3.659-3.416 2.806.633.773 3.418-2.804zm69.68 1.674-.67.742 3.278 2.966.67-.741zm-4.802 4.682-.77.633 2.806 3.416.772-.635zM22.45 86.312l-2.633 3.55.804.594 2.632-3.55zm1.814 1.307-2.455 3.675.832.555 2.455-3.674zm3.813 2.339-2.085 3.902.881.47 2.086-3.9zm1.987 1.028-1.89 3.998.903.426 1.892-3.995zm35.8 1.74-.938.338 1.49 4.16.944-.336zm-31.686.017-1.49 4.163.94.336 1.49-4.163zm29.572.71-.956.29 1.287 4.23.956-.292zM57.227 95l-.99.147.654 4.372.987-.147zm-12.19.308-.432 4.4.992.098v-.002l.049.005.429-4.4-.995-.099v.003zm2.23.188-.218 4.416.997.05v-.003l.05.002.211-4.416-.997-.049v.003z" style="color:#fff;display:inline;fill:#fff;fill-opacity:1;-inkscape-stroke:none" transform="matrix(.2 0 0 .19999 0 .001)"/></g></svg>